<svg width="1648" height="445" viewBox="0 0 1648 445" fill="none" xmlns="http://www.w3.org/2000/svg">
<g filter="url(#filter0_dng_24_157)">
<path d="M206.778 422.714C169.002 422.714 136.238 414.657 108.487 398.544C80.9157 382.431 59.6104 359.424 44.5713 329.525C29.7113 299.447 22.2812 263.64 22.2812 222.104V221.835C22.2812 180.119 29.8008 144.402 44.8398 114.682C59.8789 84.7826 81.1842 61.8659 108.756 45.9316C136.327 29.8184 169.002 21.7617 206.778 21.7617C238.11 21.7617 266.039 27.849 290.567 40.0234C315.095 52.1979 334.789 68.9378 349.649 90.2432C364.509 111.369 373.193 135.718 375.699 163.29L375.968 165.707H297.013L295.938 161.142C292.895 146.819 287.434 134.376 279.557 123.812C271.679 113.249 261.563 105.103 249.21 99.374C237.035 93.4658 222.892 90.5117 206.778 90.5117C186.01 90.5117 168.017 95.7933 152.799 106.356C137.581 116.92 125.764 132.048 117.35 151.742C109.114 171.257 104.996 194.532 104.996 221.566V221.835C104.996 249.049 109.114 272.592 117.35 292.465C125.764 312.159 137.581 327.377 152.799 338.119C168.196 348.682 186.189 353.964 206.778 353.964C222.354 353.964 236.23 351.099 248.404 345.37C260.758 339.641 271.052 331.405 279.288 320.663C287.524 309.742 293.342 296.583 296.744 281.186L297.281 278.5H376.236L375.968 281.454C373.461 308.847 364.688 333.196 349.649 354.501C334.789 375.806 315.095 392.546 290.567 404.721C266.039 416.716 238.11 422.714 206.778 422.714ZM421.622 416V28.4756H500.04V416H421.622ZM684 421.908C654.638 421.908 629.394 415.91 608.268 403.915C587.141 391.741 570.849 374.464 559.391 352.084C548.111 329.704 542.472 303.207 542.472 272.592V272.323C542.472 241.708 548.111 215.211 559.391 192.831C570.849 170.272 586.873 152.906 607.462 140.731C628.23 128.378 652.669 122.201 680.777 122.201C708.886 122.201 733.146 128.199 753.556 140.194C774.145 152.011 789.99 168.751 801.09 190.414C812.369 212.077 818.009 237.411 818.009 266.415V290.585H580.875V241.171H780.948L743.619 287.362V257.284C743.619 240.455 741.023 226.4 735.831 215.121C730.639 203.663 723.388 195.069 714.078 189.34C704.947 183.611 694.295 180.746 682.12 180.746C669.946 180.746 659.114 183.7 649.625 189.608C640.315 195.517 632.975 204.2 627.604 215.658C622.411 226.938 619.815 240.813 619.815 257.284V287.631C619.815 303.565 622.411 317.172 627.604 328.451C632.975 339.73 640.584 348.414 650.431 354.501C660.278 360.409 672.005 363.363 685.611 363.363C696.354 363.363 705.663 361.662 713.541 358.261C721.419 354.859 727.864 350.562 732.877 345.37C737.89 340.178 741.292 334.896 743.082 329.525L743.619 327.914H815.592L814.786 330.868C812.638 341.431 808.43 352.084 802.164 362.826C795.898 373.568 787.394 383.415 776.651 392.367C766.088 401.319 753.108 408.48 737.711 413.852C722.493 419.223 704.589 421.908 684 421.908ZM944.229 420.565C925.073 420.565 908.243 416.895 893.741 409.555C879.239 402.035 867.87 391.741 859.635 378.671C851.578 365.422 847.55 350.383 847.55 333.554V333.017C847.55 315.471 851.936 300.521 860.709 288.168C869.482 275.635 882.193 265.788 898.844 258.627C915.494 251.465 935.725 247.079 959.537 245.468L1071.79 238.485V287.362L971.354 293.808C956.314 294.703 944.856 298.284 936.979 304.55C929.101 310.637 925.162 318.783 925.162 328.988V329.525C925.162 340.089 929.19 348.414 937.247 354.501C945.304 360.409 956.135 363.363 969.742 363.363C981.38 363.363 991.764 361.125 1000.89 356.649C1010.2 351.994 1017.46 345.728 1022.65 337.851C1028.02 329.794 1030.7 320.753 1030.7 310.727V223.446C1030.7 210.735 1026.68 200.709 1018.62 193.368C1010.56 185.849 998.836 182.089 983.438 182.089C968.757 182.089 957.12 185.132 948.526 191.22C939.933 197.307 934.651 205.006 932.682 214.315L932.145 216.732H860.44L860.709 213.51C862.141 195.785 867.96 180.03 878.165 166.244C888.549 152.458 902.872 141.716 921.134 134.018C939.575 126.14 961.417 122.201 986.661 122.201C1011.55 122.201 1033.12 126.229 1051.38 134.286C1069.64 142.164 1083.79 153.354 1093.81 167.855C1104.02 182.357 1109.12 199.276 1109.12 218.612V416H1030.7V373.031H1029.09C1023.72 382.878 1016.74 391.382 1008.15 398.544C999.731 405.526 990.152 410.987 979.41 414.926C968.668 418.686 956.941 420.565 944.229 420.565ZM1159.88 416V128.109H1238.3V178.329H1239.91C1244.21 160.604 1251.99 146.819 1263.27 136.972C1274.55 127.125 1288.61 122.201 1305.44 122.201C1309.73 122.201 1313.85 122.47 1317.79 123.007C1321.73 123.544 1325.13 124.26 1327.99 125.155V194.174C1324.77 192.921 1320.65 191.936 1315.64 191.22C1310.63 190.325 1305.26 189.877 1299.53 189.877C1286.64 189.877 1275.63 192.383 1266.5 197.396C1257.36 202.41 1250.38 209.75 1245.55 219.418C1240.71 229.086 1238.3 240.902 1238.3 254.867V416H1159.88ZM1483.22 421.908C1454.04 421.908 1428.79 415.91 1407.49 403.915C1386.18 391.92 1369.71 374.732 1358.07 352.353C1346.43 329.973 1340.62 303.207 1340.62 272.055V271.518C1340.62 240.544 1346.52 213.957 1358.34 191.757C1370.16 169.377 1386.72 152.19 1408.02 140.194C1429.33 128.199 1454.3 122.201 1482.95 122.201C1511.78 122.201 1536.84 128.199 1558.15 140.194C1579.63 152.011 1596.28 169.109 1608.1 191.488C1619.91 213.689 1625.82 240.365 1625.82 271.518V272.055C1625.82 303.386 1619.91 330.242 1608.1 352.621C1596.46 375.001 1579.99 392.188 1558.68 404.184C1537.38 416 1512.22 421.908 1483.22 421.908ZM1483.49 360.409C1496.2 360.409 1507.21 357.007 1516.52 350.204C1526.01 343.222 1533.26 333.196 1538.27 320.126C1543.46 306.877 1546.06 290.854 1546.06 272.055V271.518C1546.06 252.898 1543.46 237.053 1538.27 223.983C1533.08 210.914 1525.74 200.977 1516.25 194.174C1506.76 187.191 1495.66 183.7 1482.95 183.7C1470.42 183.7 1459.41 187.191 1449.92 194.174C1440.61 200.977 1433.36 210.914 1428.17 223.983C1422.97 237.053 1420.38 252.898 1420.38 271.518V272.055C1420.38 290.854 1422.88 306.877 1427.9 320.126C1433.09 333.196 1440.43 343.222 1449.92 350.204C1459.41 357.007 1470.6 360.409 1483.49 360.409Z" fill="#181818" fill-opacity="0.62" shape-rendering="crispEdges"/>
</g>
<defs>
<filter id="filter0_dng_24_157" x="0.981251" y="0.46172" width="1646.14" height="443.552" filterUnits="userSpaceOnUse" color-interpolation-filters="sRGB">
<feFlood flood-opacity="0" result="BackgroundImageFix"/>
<feColorMatrix in="SourceAlpha" type="matrix" values="0 0 0 0 0 0 0 0 0 0 0 0 0 0 0 0 0 0 127 0" result="hardAlpha"/>
<feOffset dy="4"/>
<feGaussianBlur stdDeviation="2"/>
<feComposite in2="hardAlpha" operator="out"/>
<feColorMatrix type="matrix" values="0 0 0 0 0 0 0 0 0 0 0 0 0 0 0 0 0 0 0.25 0"/>
<feBlend mode="normal" in2="BackgroundImageFix" result="effect1_dropShadow_24_157"/>
<feBlend mode="normal" in="SourceGraphic" in2="BackgroundImageFix" result="shape"/>
<feTurbulence type="fractalNoise" baseFrequency="0.075757578015327454 0.075757578015327454" stitchTiles="stitch" numOctaves="3" result="noise" seed="4318" />
<feColorMatrix in="noise" type="luminanceToAlpha" result="alphaNoise" />
<feComponentTransfer in="alphaNoise" result="coloredNoise1">
<feFuncA type="discrete" tableValues="0 0 0 0 0 0 0 0 0 0 0 0 1 1 1 1 1 1 1 1 1 1 1 1 1 1 1 1 1 1 1 1 1 1 1 1 1 1 0 0 0 0 0 0 0 0 0 0 0 0 0 0 0 0 0 0 0 0 0 0 0 0 0 0 0 0 0 0 0 0 0 0 0 0 0 0 0 0 0 0 0 0 0 0 0 0 0 0 0 0 0 0 0 0 0 0 0 0 0 0 "/>
</feComponentTransfer>
<feComposite operator="in" in2="shape" in="coloredNoise1" result="noise1Clipped" />
<feComponentTransfer in="alphaNoise" result="coloredNoise2">
<feFuncA type="discrete" tableValues="0 0 0 0 0 0 0 0 0 0 0 0 0 0 0 0 0 0 0 0 0 0 0 0 0 0 0 0 0 0 0 0 0 0 0 0 0 0 0 0 0 0 0 0 0 0 0 0 0 0 0 0 0 0 0 0 0 0 0 0 0 0 1 1 1 1 1 1 1 1 1 1 1 1 1 1 1 1 1 1 1 1 1 1 1 1 1 1 0 0 0 0 0 0 0 0 0 0 0 0 "/>
</feComponentTransfer>
<feComposite operator="in" in2="shape" in="coloredNoise2" result="noise2Clipped" />
<feFlood flood-color="rgba(0, 0, 0, 0.25)" result="color1Flood" />
<feComposite operator="in" in2="noise1Clipped" in="color1Flood" result="color1" />
<feFlood flood-color="rgba(255, 255, 255, 0.25)" result="color2Flood" />
<feComposite operator="in" in2="noise2Clipped" in="color2Flood" result="color2" />
<feMerge result="effect2_noise_24_157">
<feMergeNode in="shape" />
<feMergeNode in="color1" />
<feMergeNode in="color2" />
</feMerge>
<feBlend mode="normal" in="effect2_noise_24_157" in2="effect1_dropShadow_24_157" result="effect2_noise_24_157"/>
<feTurbulence type="fractalNoise" baseFrequency="0.060606062412261963 0.060606062412261963" numOctaves="3" seed="7819" />
<feDisplacementMap in="effect2_noise_24_157" scale="42.599998474121094" xChannelSelector="R" yChannelSelector="G" result="displacedImage" width="100%" height="100%" />
<feMerge result="effect3_texture_24_157">
<feMergeNode in="displacedImage"/>
</feMerge>
</filter>
</defs>
</svg>
